<svg id="Layer_1" data-name="Layer 1" xmlns="http://www.w3.org/2000/svg" viewBox="0 0 200 130.23"><defs><style>.cls-1{fill:#f6f7eb;}</style></defs><path class="cls-1" d="M178.69,165.12H135a12.91,12.91,0,0,1-11.76-7.58h0l-10.67-23.47L98,101.93a9.39,9.39,0,0,0-17.07,0L55.55,157.55a12.91,12.91,0,0,1-11.75,7.57H0L59.26,34.88h60.17l28.42,62.5,10.74,23.48Z" transform="translate(0 -34.88)"/><path class="cls-1" d="M200,70.28V97.67A17.74,17.74,0,0,1,195,110l-15.13,15.7-35.38,36.69L133.85,138.9l35.31-36.68Z" transform="translate(0 -34.88)"/></svg>